<svg width="345" height="345" viewBox="0 0 135 135" fill="none" xmlns="http://www.w3.org/2000/svg">
<path d="M86.4701 73.9896C82.6131 80.5936 75.4671 85.0546 67.2791 85.0546C59.0911 85.0546 51.9451 80.5936 48.0881 73.9896H15.3221C20.4631 97.9516 41.8021 115.975 67.2791 115.975C92.7561 115.975 114.095 97.9516 119.236 73.9896H86.4701Z" fill="#FF3328"/>
<path d="M67.2792 85.0546C59.0912 85.0546 51.9452 80.5936 48.0882 73.9896H19.9612C28.7692 91.1796 46.6682 102.981 67.2792 102.981C87.8902 102.981 105.789 91.1796 114.597 73.9896H86.4702C82.6132 80.5936 75.4672 85.0546 67.2792 85.0546Z" fill="#FF1200"/>
<path d="M67.2792 117.475C41.6902 117.475 19.2212 99.3186 13.8552 74.3036C13.7602 73.8606 13.8712 73.3986 14.1552 73.0466C14.4402 72.6936 14.8692 72.4896 15.3222 72.4896H48.0882C48.6212 72.4896 49.1142 72.7727 49.3832 73.2337C53.1012 79.5997 59.9592 83.5546 67.2792 83.5546C74.5992 83.5546 81.4572 79.5997 85.1752 73.2327C85.4442 72.7727 85.9372 72.4886 86.4702 72.4886H119.236C119.689 72.4886 120.118 72.6936 120.403 73.0456C120.687 73.3986 120.798 73.8597 120.703 74.3027C115.337 99.3187 92.8682 117.475 67.2792 117.475ZM17.2132 75.4896C22.9572 98.1896 43.7182 114.475 67.2792 114.475C90.8402 114.475 111.601 98.1896 117.345 75.4896H87.3132C82.9692 82.3366 75.3732 86.5546 67.2792 86.5546C59.1852 86.5546 51.5892 82.3366 47.2452 75.4896H17.2132Z" fill="#3D3D3D"/>
<path d="M48.0881 51.9367C51.9451 45.3327 59.0911 40.8697 67.2791 40.8697C75.4671 40.8697 82.6131 45.3327 86.4701 51.9367H119.236C114.095 27.9747 92.7561 9.95068 67.2791 9.95068C41.8021 9.95068 20.4631 27.9747 15.3221 51.9367H48.0881Z" fill="#FF3328"/>
<path d="M67.2792 40.8697C75.4672 40.8697 82.6132 45.3327 86.4702 51.9367H114.597C105.789 34.7427 87.8902 22.9447 67.2792 22.9447C46.6682 22.9447 28.7692 34.7427 19.9612 51.9367H48.0882C51.9452 45.3327 59.0912 40.8697 67.2792 40.8697Z" fill="#FF1200"/>
<path d="M119.256 53.4367C119.252 53.4377 119.244 53.4367 119.236 53.4367H86.4702C85.9372 53.4367 85.4442 53.1537 85.1752 52.6927C81.4562 46.3257 74.5982 42.3697 67.2792 42.3697C59.9602 42.3697 53.1022 46.3257 49.3832 52.6937C49.1142 53.1537 48.6212 53.4377 48.0882 53.4377H15.3222C14.8692 53.4377 14.4402 53.2327 14.1552 52.8807C13.8712 52.5277 13.7602 52.0667 13.8552 51.6237C19.2222 26.6067 41.6902 8.45068 67.2792 8.45068C92.7872 8.45068 115.193 26.4927 120.651 51.3847C120.718 51.5557 120.755 51.7417 120.755 51.9367C120.756 52.7657 120.085 53.4367 119.256 53.4367ZM87.3132 50.4367H117.345C111.601 27.7357 90.8412 11.4507 67.2792 11.4507C43.7172 11.4507 22.9572 27.7357 17.2132 50.4367H47.2452C51.5902 43.5887 59.1862 39.3697 67.2792 39.3697C75.3722 39.3697 82.9682 43.5887 87.3132 50.4367Z" fill="#3D3D3D"/>
<path d="M78.8631 62.9617C78.8631 69.3637 73.6771 74.5477 67.2791 74.5477C60.8811 74.5477 55.6931 69.3637 55.6931 62.9617C55.6931 56.5657 60.8811 51.3757 67.2791 51.3757C73.6771 51.3757 78.8631 56.5647 78.8631 62.9617Z" fill="white"/>
<path d="M55.6931 62.9617C55.6931 56.5657 60.8811 51.3757 67.2791 51.3757C73.6771 51.3757 78.8631 56.5647 78.8631 62.9617" fill="white"/>
<path d="M67.2791 76.0477C60.0631 76.0477 54.1931 70.1777 54.1931 62.9617C54.1931 55.7457 60.0631 49.8757 67.2791 49.8757C74.4941 49.8757 80.3631 55.7457 80.3631 62.9617C80.3631 70.1777 74.4941 76.0477 67.2791 76.0477ZM67.2791 52.8757C61.7171 52.8757 57.1931 57.3997 57.1931 62.9617C57.1931 68.5237 61.7171 73.0477 67.2791 73.0477C72.8401 73.0477 77.3631 68.5237 77.3631 62.9617C77.3631 57.3997 72.8401 52.8757 67.2791 52.8757Z" fill="#33363A"/>
</svg>
